<svg xmlns="http://www.w3.org/2000/svg" xmlns:xlink="http://www.w3.org/1999/xlink" xmlns:v="http://vecta.io" width="218" height="145" viewBox="0 0 218 145" stroke="#000" stroke-linecap="round" stroke-linejoin="round" fill="#fff" fill-rule="evenodd" font-family="Roboto" font-size="14px" text-anchor="middle">
    <defs>
        <style>@import url("https://vecta.io/fonts/roboto.css");</style>
    </defs>
    <g transform="translate(92.75 28.25)">
        <rect height="17.5" stroke="#000" width="40" x="0" y="0" stroke-width="0.5" fill="none" fill-opacity="0"/>
        <g class="Text.cls" stroke="none">
            <rect x="0" y="0" width="40" height="17.5" fill="none" stroke="none"/>
            <text fill="#cc99ff" fill-opacity="1" font-style="italic" font-size="10px">
                <tspan x="20" y="12.05" paint-order="stroke" style="white-space: pre;">&lt;body&gt;</tspan>
            </text>
        </g>
    </g>
    <g transform="translate(60.25 65.75)">
        <rect height="17.5" stroke="#000" width="37.5" x="0" y="0" stroke-width="0.5" fill="none" fill-opacity="0"/>
        <g class="Text.cls" stroke="none">
            <rect x="0" y="0" width="37.5" height="17.5" fill="none" stroke="none"/>
            <text fill="#ffcccc" fill-opacity="1" font-style="italic" font-size="10px">
                <tspan x="18.75" y="12.05" paint-order="stroke" style="white-space: pre;">&lt;div&gt;</tspan>
            </text>
        </g>
    </g>
    <g transform="translate(122.75 65.75)">
        <rect height="17.5" stroke="#000" width="37.5" x="0" y="0" stroke-width="0.5" fill="none" fill-opacity="0"/>
        <g class="Text.cls" stroke="none">
            <rect x="0" y="0" width="37.5" height="17.5" fill="none" stroke="none"/>
            <text fill="#ffcccc" fill-opacity="1" font-style="italic" font-size="10px">
                <tspan x="18.75" y="12.05" paint-order="stroke" style="white-space: pre;">&lt;div&gt;</tspan>
            </text>
        </g>
    </g>
    <path d="M 0.00001 0.00001 L 0 14.5" stroke="#000" stroke-width="0.5" fill="none" fill-opacity="0" transform="translate(110.25 45.75)"/>
    <path d="M 0.00001 5 L 0.0001 0 L 30.0001 0.0001 L 62.0001 0 L 62 5" stroke="#000" stroke-width="0.5" fill="none" fill-opacity="0" transform="translate(80.25 60.25)"/>
    <g transform="translate(36.75 98.25)">
        <rect height="17.5" stroke="#000" width="37.5" x="0" y="0" stroke-width="0.5" fill="none" fill-opacity="0"/>
        <g class="Text.cls" stroke="none">
            <rect x="0" y="0" width="37.5" height="17.5" fill="none" stroke="none"/>
            <text fill="#ff9999" fill-opacity="1" font-style="italic" font-size="10px">
                <tspan x="18.75" y="12.05" paint-order="stroke" style="white-space: pre;">&lt;p&gt;</tspan>
            </text>
        </g>
    </g>
    <g transform="translate(85.75 98.25)">
        <rect height="17.5" stroke="#000" width="37.5" x="0" y="0" stroke-width="0.5" fill="none" fill-opacity="0"/>
        <g class="Text.cls" stroke="none">
            <rect x="0" y="0" width="37.5" height="17.5" fill="none" stroke="none"/>
            <text fill="#ff9999" fill-opacity="1" font-style="italic" font-size="10px">
                <tspan x="18.75" y="12.05" paint-order="stroke" style="white-space: pre;">&lt;p&gt;</tspan>
            </text>
        </g>
    </g>
    <path d="M 25 0.00001 L 25 11 L 0.0001 11 L 0 14" stroke="#000" stroke-width="0.5" fill="none" fill-opacity="0" transform="translate(55.25 83.75)"/>
    <path d="M 0.00001 0.00001 L 25.0001 0 L 25 3.5" stroke="#000" stroke-width="0.5" fill="none" fill-opacity="0" transform="translate(80.25 94.75)"/>
    <g transform="translate(85.75 127.25)">
        <rect height="17.5" width="39.5" x="0" y="0" stroke-width="0.5" fill="none" fill-opacity="0"/>
        <g class="Text.cls" stroke="none">
            <rect x="0" y="0" width="39.5" height="17.5" fill="none" stroke="none"/>
            <text fill="#ff6666" fill-opacity="1" font-style="italic" font-size="10px">
                <tspan x="19.75" y="12.05" paint-order="stroke" style="white-space: pre;">&lt;span&gt;</tspan>
            </text>
        </g>
    </g>
    <path d="M 0.00001 0.00001 L 0 11" stroke="#000" stroke-width="0.5" fill="none" fill-opacity="0" transform="translate(105.25 115.75)"/>
    <g transform="translate(179.25 65.75)">
        <rect height="17.5" stroke="#000" width="37.5" x="0" y="0" stroke-width="0.5" fill="none" fill-opacity="0"/>
        <g class="Text.cls" stroke="none">
            <rect x="0" y="0" width="37.5" height="17.5" fill="none" stroke="none"/>
            <text fill="#ccffd5" fill-opacity="1" font-style="italic" font-size="10px">
                <tspan x="18.75" y="12.05" paint-order="stroke" style="white-space: pre;">&lt;ul&gt;</tspan>
            </text>
        </g>
    </g>
    <path d="M 0.00001 0.00001 L 59.0001 0 L 59 5.5" stroke="#000" stroke-width="0.5" fill="none" fill-opacity="0" transform="translate(141.75 60.25)"/>
    <g transform="translate(180.25 94.75)">
        <rect height="17.5" stroke="#000" width="37.5" x="0" y="0" stroke-width="0.5" fill="none" fill-opacity="0"/>
        <g class="Text.cls" stroke="none">
            <rect x="0" y="0" width="37.5" height="17.5" fill="none" stroke="none"/>
            <text fill="#99ffaa" fill-opacity="1" font-style="italic" font-size="10px">
                <tspan x="18.75" y="12.05" paint-order="stroke" style="white-space: pre;">&lt;li&gt;</tspan>
            </text>
        </g>
    </g>
    <path d="M 0.00001 0.00001 L 0 11" stroke="#000" stroke-width="0.5" fill="none" fill-opacity="0" transform="translate(200.25 83.75)"/>
    <g transform="translate(91.75 0.25)">
        <rect height="17.5" stroke="#000" width="38.5" x="0" y="0" stroke-width="0.5" fill="none" fill-opacity="0"/>
        <g class="Text.cls" stroke="none">
            <rect x="0" y="0" width="38.5" height="17.5" fill="none" stroke="none"/>
            <text fill="#99ccff" fill-opacity="1" font-style="italic" font-size="10px">
                <tspan x="19.25" y="12.05" paint-order="stroke" style="white-space: pre;">&lt;html&gt;</tspan>
            </text>
        </g>
    </g>
    <path d="M 0.00001 0.00001 L 0 10" stroke="#000" stroke-width="0.5" fill="none" fill-opacity="0" transform="translate(110.25 17.75)"/>
    <g transform="translate(0.25 28.25)">
        <rect height="17.5" stroke="#000" width="40" x="0" y="0" stroke-width="0.5" fill="none" fill-opacity="0"/>
        <g class="Text.cls" stroke="none">
            <rect x="0" y="0" width="40" height="17.5" fill="none" stroke="none"/>
            <text fill="#ffccff" fill-opacity="1" font-style="italic" font-size="10px">
                <tspan x="20" y="12.05" paint-order="stroke" style="white-space: pre;">&lt;head&gt;</tspan>
            </text>
        </g>
    </g>
    <path d="M 90 0.00001 L 0 0" stroke="#000" stroke-width="0.5" fill="none" fill-opacity="0" transform="translate(20.25 22.75)"/>
    <path d="M 0.00001 0.00001 L 0 5" stroke="#000" stroke-width="0.5" fill="none" fill-opacity="0" transform="translate(20.25 22.75)"/>
    <g transform="translate(0.25 55.25)">
        <rect height="17.5" stroke="#000" width="37.5" x="0" y="0" stroke-width="0.5" fill="none" fill-opacity="0"/>
        <g class="Text.cls" stroke="none">
            <rect x="0" y="0" width="37.5" height="17.5" fill="none" stroke="none"/>
            <text fill="#ff99ff" fill-opacity="1" font-style="italic" font-size="10px">
                <tspan x="18.75" y="12.05" paint-order="stroke" style="white-space: pre;">&lt;link&gt;</tspan>
            </text>
        </g>
    </g>
    <path d="M 0.00001 0.00001 L 0 9" stroke="#000" stroke-width="0.5" fill="none" fill-opacity="0" transform="translate(20.25 46.25)"/>
</svg>